# xmcd CD database file
#
# Track frame offsets:
#	150
#	21360
#	42402
#	65577
#	90797
#	111237
#	139162
#	161145
#	186850
#	205032
#	224582
#
# Disc length: 3317 seconds
#
# Revision: 0
# Processed by: cddbd v1.5.1PL0 Copyright (c) Steve Scherf et al.
# Submitted via: CDex 1.51
#
DISCID=a00cf30b
DTITLE=都留教博 - 太古の太陽
DYEAR=1993
DGENRE=New Age
TTITLE0=出航
TTITLE1=五月の風
TTITLE2=太古の太陽
TTITLE3=太陽の東,月の西
TTITLE4=ロスト・シティ
TTITLE5=アンダートウ
TTITLE6=冬涛(ふゆなみ)
TTITLE7=揺蕩(たゆたい)
TTITLE8=ハイドウェイ
TTITLE9=アイ・ウィル
TTITLE10=ゴーイング・ホー ム
EXTD=YEAR: 1993
EXTT0=
EXTT1=
EXTT2=
EXTT3=
EXTT4=
EXTT5=
EXTT6=
EXTT7=
EXTT8=
EXTT9=
EXTT10=
PLAYORDER=
